<svg xmlns="http://www.w3.org/2000/svg" viewBox="0 0 261.73 174.66"><defs><style>.cls-1{fill:#fff;}</style></defs><title>fin-ratusAsset 7</title><g id="Layer_2" data-name="Layer 2"><g id="Layer_1-2" data-name="Layer 1"><path class="cls-1" d="M10.07,33h90.8a0,0,0,0,1,0,0V49.49a0,0,0,0,1,0,0H26.57A16.51,16.51,0,0,1,10.07,33v0a0,0,0,0,1,0,0Z" transform="translate(45.41 -27.14) rotate(45)"/><path class="cls-1" d="M60.42,29.68h90.8a0,0,0,0,1,0,0v0a16.51,16.51,0,0,1-16.51,16.51H60.42a0,0,0,0,1,0,0V29.68a0,0,0,0,1,0,0Z" transform="translate(57.82 -63.71) rotate(45)"/><path class="cls-1" d="M179.93,33h74.29a0,0,0,0,1,0,0V49.49a0,0,0,0,1,0,0h-90.8a0,0,0,0,1,0,0v0A16.51,16.51,0,0,1,179.93,33Z" transform="translate(385.63 -77.25) rotate(135)"/><rect class="cls-1" x="113.07" y="29.68" width="90.8" height="16.51" transform="translate(297.34 -47.29) rotate(135)"/><path class="cls-1" d="M4.6,171.33H1.68L.51,174.56H0l3-8.36a.11.11,0,0,1,.2,0l3,8.36h-.5Zm-.18-.47-1.28-3.54-1.29,3.54Z"/><path class="cls-1" d="M10,171.63v2.93H9.48v-8.43h2.21a2.82,2.82,0,0,1,1.64.81,2.62,2.62,0,0,1,.81,1.94,2.66,2.66,0,0,1-.81,2,2.63,2.63,0,0,1-1.94.8Zm0-5v4.55h1.44a2.2,2.2,0,0,0,1.6-.67,2.27,2.27,0,0,0,0-3.22,2.19,2.19,0,0,0-1.6-.66Z"/><path class="cls-1" d="M17.85,171.63v2.93h-.48v-8.43h2.21a2.79,2.79,0,0,1,1.64.81,2.62,2.62,0,0,1,.81,1.94,2.66,2.66,0,0,1-.81,2,2.63,2.63,0,0,1-1.94.8Zm0-5v4.55h1.43a2.2,2.2,0,0,0,1.6-.67,2.27,2.27,0,0,0,0-3.22,2.19,2.19,0,0,0-1.6-.66Z"/><path class="cls-1" d="M28.64,171.33H25.73l-1.18,3.23h-.5l3-8.36a.1.1,0,0,1,.19,0l3,8.36h-.5Zm-.17-.47-1.29-3.54-1.28,3.54Z"/><path class="cls-1" d="M35.57,171.63H34v2.93h-.47v-8.43h2.21a2.82,2.82,0,0,1,1.64.81,2.65,2.65,0,0,1,.8,1.94,2.76,2.76,0,0,1-2.08,2.68l1.94,3h-.59Zm-1.57-5v4.55h1.43a2.28,2.28,0,1,0,0-4.55Z"/><path class="cls-1" d="M45.49,171.33H42.57l-1.17,3.23h-.51l3-8.36a.11.11,0,0,1,.2,0l3,8.36h-.5Zm-.18-.47L44,167.32l-1.29,3.54Z"/><path class="cls-1" d="M52.07,166.61v7.95h-.48v-7.95H49.46v-.48H54.2v.48Z"/><path class="cls-1" d="M62.43,166.13h.48v6.06a2.84,2.84,0,0,1-.8,1.63,2.75,2.75,0,0,1-4.7-1.94v-5.75h.48v5.75a2.27,2.27,0,1,0,4.54,0Z"/><path class="cls-1" d="M68.74,169.89a3.55,3.55,0,0,1-1.42-.82,1.71,1.71,0,0,1-.52-1.26,1.69,1.69,0,0,1,.52-1.25,1.72,1.72,0,0,1,1.26-.53,1.76,1.76,0,0,1,1.27.52,1.64,1.64,0,0,1,.4.63l-.43.17a1.32,1.32,0,0,0-1.24-.86,1.31,1.31,0,0,0-.92,2.24,3.54,3.54,0,0,0,1,.65,4.23,4.23,0,0,1,1.7,1,2.49,2.49,0,0,1,0,3.52,2.47,2.47,0,0,1-3.53,0,2.39,2.39,0,0,1-.7-1.36l.45-.16A2,2,0,0,0,70,173.59a1.93,1.93,0,0,0,.6-1.43,2,2,0,0,0-.6-1.44A4,4,0,0,0,68.74,169.89Z"/><path class="cls-1" d="M83.86,166.13v.48H80.65v3.5h3.21v.47H80.65v4h-.47v-8.43Z"/><path class="cls-1" d="M94.71,167.28a4.33,4.33,0,0,1-3,7.38,4.33,4.33,0,0,1,0-8.65A4.13,4.13,0,0,1,94.71,167.28Zm-3-.79a3.86,3.86,0,1,0,2.71,1.13A3.72,3.72,0,0,0,91.66,166.49Z"/><path class="cls-1" d="M101.63,171.63h-1.57v2.93h-.48v-8.43h2.22a2.79,2.79,0,0,1,1.63.81,2.62,2.62,0,0,1,.81,1.94,2.78,2.78,0,0,1-2.09,2.68l1.95,3h-.59Zm-1.57-5v4.55h1.43a2.28,2.28,0,0,0,0-4.55Z"/><path class="cls-1" d="M117,166.13v.48h-3.21v3.5H117v.47h-3.21v4h-.47v-8.43Z"/><path class="cls-1" d="M121.23,166.13v8.43h-.48v-8.43Z"/><path class="cls-1" d="M125.07,166.13h.52l4.33,7.49v-7.49h.47v8.43h-.47L125.54,167v7.57h-.47Z"/><path class="cls-1" d="M138.2,171.33h-2.92l-1.17,3.23h-.51l3-8.36a.11.11,0,0,1,.2,0l3,8.36h-.5Zm-.17-.47-1.29-3.54-1.28,3.54Z"/><path class="cls-1" d="M143.08,166.13h.53l4.32,7.49v-7.49h.48v8.43h-.48L143.56,167v7.57h-.48Z"/><path class="cls-1" d="M158.87,173.21l.36.32a4.31,4.31,0,0,1-7.22-3.19,4.32,4.32,0,0,1,4.31-4.31,4.23,4.23,0,0,1,2.91,1.12l-.36.33a3.73,3.73,0,0,0-2.55-1,3.83,3.83,0,0,0-2.7,6.54,3.83,3.83,0,0,0,5.25.15Z"/><path class="cls-1" d="M166.91,166.13v.48h-3.74v3.5h3.74v.47h-3.74v3.5h3.74v.48H162.7v-8.43Z"/><path class="cls-1" d="M180.37,171.33h-2.92l-1.18,3.23h-.5l3-8.36a.1.1,0,0,1,.19,0l3,8.36h-.5Zm-.18-.47-1.28-3.54-1.29,3.54Z"/><path class="cls-1" d="M185.25,166.13h.52l4.33,7.49v-7.49h.47v8.43h-.47L185.72,167v7.57h-.47Z"/><path class="cls-1" d="M194.78,166.14h0a4.35,4.35,0,0,1,3.22,1.15,4.33,4.33,0,0,1,0,6.11,4.35,4.35,0,0,1-3.22,1.15h-.51v-8.43h.47Zm0,.49v7.44h0a3.9,3.9,0,0,0,2.88-1,3.85,3.85,0,0,0,0-5.43,3.9,3.9,0,0,0-2.88-1Z"/><path class="cls-1" d="M208.66,174.56v-8.43h.48v8h3.26v.48Z"/><path class="cls-1" d="M220,166.13v.48h-3.74v3.5H220v.47h-3.74v3.5H220v.48h-4.21v-8.43Z"/><path class="cls-1" d="M223.64,166.13h.52l4.33,7.49v-7.49H229v8.43h-.47L224.11,167v7.57h-.47Z"/><path class="cls-1" d="M233.17,166.14h0a4.37,4.37,0,0,1,3.22,1.15,4.33,4.33,0,0,1,0,6.11,4.37,4.37,0,0,1-3.22,1.15h-.51v-8.43h.47Zm0,.49v7.44h0a3.9,3.9,0,0,0,2.88-1,3.85,3.85,0,0,0,0-5.43,3.9,3.9,0,0,0-2.88-1Z"/><path class="cls-1" d="M241.75,166.13v8.43h-.48v-8.43Z"/><path class="cls-1" d="M245.59,166.13h.52l4.33,7.49v-7.49h.47v8.43h-.47L246.06,167v7.57h-.47Z"/><path class="cls-1" d="M261.7,173.51a4,4,0,0,1-2.87,1.15,4.32,4.32,0,0,1,0-8.63,4.2,4.2,0,0,1,2.9,1.12l-.36.33a3.83,3.83,0,1,0-.15,5.86v-2.57h.48Z"/><path class="cls-1" d="M93.19,119a3.17,3.17,0,0,1,.44.39,1.85,1.85,0,0,1,.6,1.39,1.81,1.81,0,0,1-.6,1.36,2.07,2.07,0,0,1-2.85,0,1.81,1.81,0,0,1-.6-1.36,2.27,2.27,0,0,1,.15-.83L92,116.7a.76.76,0,0,1,.67-.41h.46a.76.76,0,0,1,.71,1Z"/><path class="cls-1" d="M55.88,119.37h2.43L72.2,142.52V120.6a1.23,1.23,0,0,1,1.22-1.23h0a1.23,1.23,0,0,1,1.23,1.23v26.86H72.39L58.32,124.08v22.16a1.21,1.21,0,0,1-1.22,1.22h0a1.22,1.22,0,0,1-1.22-1.22Z"/><path class="cls-1" d="M108.29,138H103.9v8.24a1.22,1.22,0,0,1-1.22,1.22h0a1.22,1.22,0,0,1-1.23-1.22V119.37h7.9a10,10,0,0,1,5.79,2.73,9.34,9.34,0,0,1-3.94,15.53l6.65,9.83h-3Zm-4.39-16.25v13.89h4.39a7.14,7.14,0,0,0,5.11-2,6.77,6.77,0,0,0,0-9.84,7.13,7.13,0,0,0-5.11-2Z"/><path class="cls-1" d="M147.61,137h-9.23l-3.95,10.45h-2.6l10.55-27.84a.67.67,0,0,1,1.25,0l10.54,27.84h-2.61Zm-.88-2.35L143,124.82l-3.72,9.84Z"/><path class="cls-1" d="M175.6,121.73v24.52a1.21,1.21,0,0,1-1.21,1.21h0a1.22,1.22,0,0,1-1.22-1.21V121.73H166v-2.36h16.8v2.36Z"/><path class="cls-1" d="M216.63,119.13h0a1.23,1.23,0,0,1,1.22,1.23v18.8a9.33,9.33,0,0,1-2.83,5.58,10,10,0,0,1-13.7,0,8.79,8.79,0,0,1-2.83-6.57V120.37a1.24,1.24,0,0,1,1.23-1.24h0a1.24,1.24,0,0,1,1.23,1.24v17.79a6.57,6.57,0,0,0,2.12,4.9,7.45,7.45,0,0,0,10.22,0,6.57,6.57,0,0,0,2.12-4.9v-17.8A1.22,1.22,0,0,1,216.63,119.13Z"/><path class="cls-1" d="M242.7,132a11.81,11.81,0,0,1-5.6-3.46,5.1,5.1,0,0,1-1.11-2.4,6,6,0,0,1,1.77-5.61,6.62,6.62,0,0,1,9.1,0,5.73,5.73,0,0,1,1.58,2.56l-2.21.83a4.92,4.92,0,0,0-1.1-1.78,3.91,3.91,0,0,0-2.81-1.11,4,4,0,0,0-3.39,1.77,2.94,2.94,0,0,0-.51,1.14,3.74,3.74,0,0,0,1.08,3.65,11,11,0,0,0,3.18,2h0a14.61,14.61,0,0,1,5.88,3.39,8.24,8.24,0,0,1,0,12,9.06,9.06,0,0,1-12.48,0,8.37,8.37,0,0,1-2.28-3.81,1.23,1.23,0,0,1,.77-1.49h0a1.23,1.23,0,0,1,1.58.86,6.17,6.17,0,0,0,1.65,2.81,6.56,6.56,0,0,0,9.06,0,6,6,0,0,0,0-8.72A12.56,12.56,0,0,0,242.7,132Z"/><path class="cls-1" d="M25.81,119.56v2.33H15.48v10.46H25.81v2.32H15.48V146.3a1.16,1.16,0,0,1-1.17,1.16h0a1.16,1.16,0,0,1-1.17-1.16V119.56Z"/><path class="cls-1" d="M41.12,119.56V146.3A1.17,1.17,0,0,1,40,147.46h0a1.16,1.16,0,0,1-1.17-1.16V119.56Z"/></g></g></svg>